<?xml version="1.0" encoding="UTF-8"?>
<svg id="Calque_1" xmlns="http://www.w3.org/2000/svg" version="1.1" viewBox="0 0 318.3 84.5">
  <!-- Generator: Adobe Illustrator 29.8.3, SVG Export Plug-In . SVG Version: 2.1.1 Build 3)  -->
  <path d="M77.4,84.5c-8.2,0-15.2-1.8-21-5.4-5.9-3.6-10.4-8.6-13.5-14.9-3.1-6.3-4.7-13.6-4.7-21.9s1.6-15.7,4.8-22c3.2-6.3,7.7-11.3,13.5-14.9S69.3,0,77.3,0s12.6,1.2,17.7,3.7c5.1,2.4,9.2,5.9,12.3,10.3,3.1,4.4,4.8,9.6,5.2,15.5h-18.5c-.5-2.6-1.4-5-2.9-7.1-1.4-2.1-3.3-3.8-5.5-5-2.3-1.2-5-1.8-8.1-1.8s-7.4,1.1-10.4,3.2c-3,2.1-5.3,5.2-6.9,9.1-1.7,4-2.5,8.7-2.5,14.2s.8,10.4,2.4,14.4c1.6,4,3.9,7.1,6.9,9.3,3,2.2,6.5,3.3,10.5,3.3s7.8-1.2,10.8-3.7c3-2.5,4.8-5.9,5.7-10.3h18.5c-.4,5.8-2.1,10.9-5.1,15.4-3,4.4-7,7.9-12.1,10.4-5.1,2.5-11,3.8-17.9,3.8Z"/>
  <path d="M158.6,84.5c-8,0-14.9-1.8-20.8-5.3s-10.4-8.4-13.6-14.8c-3.2-6.3-4.8-13.7-4.8-22.1s1.6-15.9,4.8-22.2c3.2-6.4,7.7-11.3,13.6-14.8,5.9-3.5,12.8-5.3,20.8-5.3s14.9,1.8,20.8,5.3c5.9,3.5,10.4,8.5,13.6,14.8,3.2,6.4,4.8,13.8,4.8,22.2s-1.6,15.8-4.8,22.1c-3.2,6.3-7.8,11.3-13.6,14.8s-12.8,5.3-20.8,5.3ZM158.6,69c4.4,0,8.1-1.2,11-3.6,2.9-2.4,5-5.6,6.5-9.6,1.4-4.1,2.2-8.5,2.2-13.5s-.7-9.6-2.2-13.6c-1.4-4.1-3.6-7.3-6.5-9.6-2.9-2.4-6.5-3.6-11-3.6s-8,1.2-10.9,3.6-5.1,5.6-6.6,9.6c-1.4,4.1-2.2,8.6-2.2,13.6s.7,9.4,2.2,13.5c1.4,4.1,3.6,7.3,6.6,9.6,2.9,2.4,6.6,3.6,10.9,3.6Z"/>
  <path d="M295.2,1l23.1,81.9h-19.6l-14.4-57.6h-.7l-14.7,57.6h-19.4l-14.7-57.3h-.7l-14.2,57.3h-19.7L223.2,1h20.1l15.4,55.3h1l15.4-55.3h20.1Z"/>
  <path d="M11.8,84.2c-3.3,0-6.1-1.1-8.4-3.4s-3.4-5-3.4-8.3,1.1-6,3.4-8.3,5.1-3.4,8.4-3.4,6.1,1.1,8.4,3.4,3.4,5,3.4,8.3-1.1,6-3.4,8.3-5.1,3.4-8.4,3.4Z"/>
</svg>